<mxfile host="app.diagrams.net" modified="2024-05-29T19:14:36.808Z" agent="Mozilla/5.0 (Windows NT 10.0; Win64; x64) AppleWebKit/537.36 (KHTML, like Gecko) Chrome/122.0.0.0 YaBrowser/24.4.0.0 Safari/537.36" etag="61VIftWxft0eQhJdO-KC" version="24.4.10" type="device">
  <diagram name="Страница — 1" id="8MR3RzWNxrYm47fKBaq4">
    <mxGraphModel dx="1386" dy="801" grid="1" gridSize="10" guides="1" tooltips="1" connect="1" arrows="1" fold="1" page="1" pageScale="1" pageWidth="827" pageHeight="1169" math="0" shadow="0">
      <root>
        <mxCell id="0" />
        <mxCell id="1" parent="0" />
        <mxCell id="9ydrv3nZ5mGaOBTBk0V5-1" value="Бронь билета" style="rounded=0;whiteSpace=wrap;html=1;" parent="1" vertex="1">
          <mxGeometry x="340" y="360" width="120" height="60" as="geometry" />
        </mxCell>
        <mxCell id="9ydrv3nZ5mGaOBTBk0V5-4" value="" style="endArrow=classic;html=1;rounded=0;entryX=0;entryY=0.5;entryDx=0;entryDy=0;" parent="1" target="9ydrv3nZ5mGaOBTBk0V5-1" edge="1">
          <mxGeometry width="50" height="50" relative="1" as="geometry">
            <mxPoint x="250" y="390" as="sourcePoint" />
            <mxPoint x="230" y="360" as="targetPoint" />
          </mxGeometry>
        </mxCell>
        <mxCell id="9ydrv3nZ5mGaOBTBk0V5-5" value="" style="endArrow=classic;html=1;rounded=0;" parent="1" edge="1">
          <mxGeometry width="50" height="50" relative="1" as="geometry">
            <mxPoint x="460" y="389.71" as="sourcePoint" />
            <mxPoint x="600" y="390" as="targetPoint" />
          </mxGeometry>
        </mxCell>
        <mxCell id="9ydrv3nZ5mGaOBTBk0V5-6" value="" style="endArrow=classic;html=1;rounded=0;entryX=0.289;entryY=0.995;entryDx=0;entryDy=0;entryPerimeter=0;" parent="1" edge="1">
          <mxGeometry width="50" height="50" relative="1" as="geometry">
            <mxPoint x="370.32" y="480.3" as="sourcePoint" />
            <mxPoint x="370.00000000000006" y="419.99999999999994" as="targetPoint" />
          </mxGeometry>
        </mxCell>
        <mxCell id="9ydrv3nZ5mGaOBTBk0V5-7" value="" style="endArrow=classic;html=1;rounded=0;entryX=0.289;entryY=0.995;entryDx=0;entryDy=0;entryPerimeter=0;" parent="1" edge="1">
          <mxGeometry width="50" height="50" relative="1" as="geometry">
            <mxPoint x="380" y="270" as="sourcePoint" />
            <mxPoint x="380.00000000000006" y="359.99999999999994" as="targetPoint" />
          </mxGeometry>
        </mxCell>
        <mxCell id="9ydrv3nZ5mGaOBTBk0V5-8" value="Запрос клиента" style="text;html=1;align=center;verticalAlign=middle;whiteSpace=wrap;rounded=0;" parent="1" vertex="1">
          <mxGeometry x="260" y="360" width="60" height="30" as="geometry" />
        </mxCell>
        <mxCell id="9ydrv3nZ5mGaOBTBk0V5-9" value="Забронированный билет на рейс" style="text;html=1;align=center;verticalAlign=middle;whiteSpace=wrap;rounded=0;" parent="1" vertex="1">
          <mxGeometry x="470" y="350" width="110" height="40" as="geometry" />
        </mxCell>
        <mxCell id="9ydrv3nZ5mGaOBTBk0V5-10" value="Пользовательский интерфейс" style="text;html=1;align=center;verticalAlign=middle;whiteSpace=wrap;rounded=0;" parent="1" vertex="1">
          <mxGeometry x="270" y="450" width="80" height="30" as="geometry" />
        </mxCell>
        <mxCell id="9ydrv3nZ5mGaOBTBk0V5-11" value="Алгоритм появления блоков" style="text;html=1;align=center;verticalAlign=middle;whiteSpace=wrap;rounded=0;" parent="1" vertex="1">
          <mxGeometry x="320" y="280" width="60" height="30" as="geometry" />
        </mxCell>
        <mxCell id="DL5LZsEftJqBS9trvse9-1" value="&lt;span style=&quot;color: rgb(0, 0, 0); font-family: Helvetica; font-size: 12px; font-style: normal; font-variant-ligatures: normal; font-variant-caps: normal; font-weight: 400; letter-spacing: normal; orphans: 2; text-indent: 0px; text-transform: none; widows: 2; word-spacing: 0px; -webkit-text-stroke-width: 0px; white-space: normal; background-color: rgb(251, 251, 251); text-decoration-thickness: initial; text-decoration-style: initial; text-decoration-color: initial; float: none; display: inline !important;&quot;&gt;Алгоритм работы с базой данных&lt;/span&gt;" style="text;whiteSpace=wrap;html=1;align=center;" vertex="1" parent="1">
          <mxGeometry x="414" y="280" width="110" height="40" as="geometry" />
        </mxCell>
        <mxCell id="DL5LZsEftJqBS9trvse9-2" value="" style="endArrow=classic;html=1;rounded=0;entryX=0.289;entryY=0.995;entryDx=0;entryDy=0;entryPerimeter=0;" edge="1" parent="1">
          <mxGeometry width="50" height="50" relative="1" as="geometry">
            <mxPoint x="413" y="270" as="sourcePoint" />
            <mxPoint x="413.00000000000006" y="359.99999999999994" as="targetPoint" />
          </mxGeometry>
        </mxCell>
      </root>
    </mxGraphModel>
  </diagram>
</mxfile>
